<?xml version="1.0" encoding="UTF-8"?>
<svg id="Layer_1" xmlns="http://www.w3.org/2000/svg" version="1.1" viewBox="0 0 9485.62 2294.11">
  <defs>
    <style>
      .st0 { fill: #79b829; }
      .st1 { fill: #FFFFFF; }
    </style>
  </defs>
  <path class="st0" d="M5263.97,1703.63l699.38-1211.34c3.57-6.15,6.95-11.09,9.96-14.99,2.96,3.9,6.43,8.83,10.01,15.08l699.29,1211.25h342.11l-784.92-1359.4c-63.37-109.87-160.51-172.86-266.48-172.86s-203.16,62.99-266.53,172.86l-784.87,1359.4h342.06Z"/>
  <path class="st0" d="M8335.16,218.77l-699.38,1211.34c-3.48,6.2-6.95,11.13-9.96,15.08-3.05-3.94-6.34-8.88-9.96-15.08l-699.43-1211.34h-341.96l784.88,1359.4c63.37,109.92,160.55,172.96,266.48,172.96s203.16-63.04,266.53-172.91l784.97-1359.45h-342.15Z"/>
  <path class="st1" d="M582.2,2121.32h-296.26V721.94c0-277.71,225.89-503.69,503.65-503.69h409.75c409.61,0,742.88,333.37,742.88,742.98s-333.27,742.88-742.88,742.88h-434.5v-296.26h434.5c246.28,0,446.62-200.44,446.62-446.62s-200.34-446.67-446.62-446.67h-409.75c-114.43,0-207.39,93.06-207.39,207.39v1399.38Z"/>
  <path class="st1" d="M3385.52,376.31c-130.21-102.35-289.92-158.07-457.94-158.07h-330.78c-277.75,0-503.65,225.99-503.65,503.69v981.27h296.26v-981.27c0-114.33,93.01-207.39,207.39-207.39h330.78c114,0,221.34,42.84,304.29,120.3,36.69-94.04,88.97-180.94,153.65-258.54"/>
  <path class="st1" d="M4190.03,1744.83c-456.58,0-827.95-351.45-827.95-783.37s371.37-783.37,827.95-783.37,827.9,351.41,827.9,783.37-371.42,783.37-827.9,783.37M4190.03,474.34c-293.21,0-531.69,218.52-531.69,487.11s238.48,487.11,531.69,487.11,531.64-218.57,531.64-487.11-238.53-487.11-531.64-487.11"/>
  <path class="st1" d="M8821.61,394.56v-1.08c0-107.33,87.13-197.24,197.76-197.24s196.63,88.83,196.63,196.16v1.08c0,107.34-87.18,197.29-197.75,197.29s-196.63-88.87-196.63-196.21M9193.17,393.48v-1.08c0-96.44-74.69-174.36-173.8-174.36s-174.93,79.01-174.93,175.44v1.08c0,96.44,74.64,174.36,173.8,174.36s174.93-78.96,174.93-175.45M8937.59,282.9h93.2c28.33,0,50.07,8.17,64.82,22.88,11.46,11.41,17.48,27.24,17.48,45.75v1.13c0,33.77-18.56,55.01-45.28,64.82l51.25,75.16h-53.97l-44.67-67.55h-36.5v67.55h-46.32v-209.74ZM9030.22,385.31c23.39,0,35.98-12.54,35.98-29.97v-1.08c0-20.15-14.19-30.53-37.06-30.53h-45.24v61.58h46.32Z"/>
</svg>
